<svg width="25" height="25" viewBox="0 0 25 25" fill="none" xmlns="http://www.w3.org/2000/svg">
<g id="ant-design:monitor-outlined">
<path id="Vector" d="M16.7381 10.1727L16.7428 10.168L15.9318 9.12969C15.9168 9.11027 15.898 9.09401 15.8767 9.08185C15.8553 9.06969 15.8318 9.06186 15.8074 9.05881C15.783 9.05576 15.7582 9.05755 15.7345 9.06409C15.7109 9.07062 15.6887 9.08176 15.6693 9.09688L14.4881 10.018L12.8357 7.90625C12.8207 7.88683 12.8019 7.87057 12.7806 7.85841C12.7592 7.84625 12.7357 7.83842 12.7113 7.83537C12.6869 7.83232 12.6621 7.83412 12.6385 7.84065C12.6148 7.84718 12.5926 7.85832 12.5732 7.87344L11.6849 8.56953C11.6655 8.58459 11.6493 8.60334 11.6371 8.62469C11.6249 8.64604 11.6171 8.66959 11.6141 8.69397C11.611 8.71836 11.6128 8.7431 11.6193 8.7668C11.6259 8.79049 11.637 8.81265 11.6521 8.83203L13.3045 10.9461L13.2998 10.9484L14.1107 11.9867C14.174 12.0688 14.2912 12.0828 14.3732 12.0195L15.5545 11.0984L17.0568 13.0203C17.1201 13.1023 17.2373 13.1164 17.3193 13.0531L18.2076 12.3594C18.2896 12.2961 18.3037 12.1789 18.2404 12.0969L16.7381 10.1727ZM14.7506 3.125C10.8154 3.125 7.62556 6.31484 7.62556 10.25C7.62556 11.8977 8.18572 13.4141 9.12322 14.6211L3.17947 20.5648C3.14457 20.6001 3.125 20.6477 3.125 20.6973C3.125 20.7469 3.14457 20.7944 3.17947 20.8297L4.17088 21.8211C4.24353 21.8938 4.36306 21.8938 4.43572 21.8211L10.3795 15.8773C11.5865 16.8148 13.1029 17.375 14.7506 17.375C18.6857 17.375 21.8756 14.1852 21.8756 10.25C21.8756 6.31484 18.6857 3.125 14.7506 3.125ZM18.5287 14.0281C17.5209 15.0383 16.1779 15.5938 14.7506 15.5938C13.3232 15.5938 11.9802 15.0383 10.9724 14.0281C9.96228 13.0203 9.40681 11.6773 9.40681 10.25C9.40681 8.82266 9.96228 7.47969 10.9724 6.47188C11.9802 5.46172 13.3232 4.90625 14.7506 4.90625C16.1779 4.90625 17.5209 5.46172 18.5287 6.47188C19.5388 7.47969 20.0943 8.82266 20.0943 10.25C20.0943 11.6773 19.5388 13.0203 18.5287 14.0281Z" fill="#828282"/>
</g>
</svg>
