<svg width="32" height="33" viewBox="0 0 32 33" fill="none" xmlns="http://www.w3.org/2000/svg">
<g id="fluent:reward-24-regular">
<path id="Vector" d="M26.9993 3.41602C28.2873 3.41602 29.3327 4.46135 29.3327 5.74935V9.80668C29.3325 10.4765 29.1489 11.1335 28.8017 11.7063C28.4545 12.2792 27.9571 12.7459 27.3633 13.056L18.9873 17.4293C20.3292 18.1023 21.4046 19.2084 22.0396 20.5686C22.6745 21.9288 22.8318 23.4635 22.4861 24.9242C22.1403 26.3849 21.3117 27.6862 20.1343 28.6174C18.957 29.5486 17.4998 30.0552 15.9987 30.0552C14.4976 30.0552 13.0404 29.5486 11.863 28.6174C10.6857 27.6862 9.85706 26.3849 9.51129 24.9242C9.16552 23.4635 9.32285 21.9288 9.95781 20.5686C10.5928 19.2084 11.6682 18.1023 13.01 17.4293L4.63668 13.0573C4.04249 12.7474 3.54463 12.2804 3.1972 11.7073C2.84977 11.1342 2.66605 10.4769 2.66602 9.80668V5.74935C2.66602 4.46135 3.71135 3.41602 4.99935 3.41602H26.9993ZM15.9993 18.724C14.7617 18.724 13.5747 19.2157 12.6995 20.0909C11.8243 20.966 11.3327 22.153 11.3327 23.3907C11.3327 24.6284 11.8243 25.8153 12.6995 26.6905C13.5747 27.5657 14.7617 28.0573 15.9993 28.0573C17.237 28.0573 18.424 27.5657 19.2992 26.6905C20.1743 25.8153 20.666 24.6284 20.666 23.3907C20.666 22.153 20.1743 20.966 19.2992 20.0909C18.424 19.2157 17.237 18.724 15.9993 18.724ZM20.666 5.41468H11.3327V14.2973L15.8447 16.6547C15.8924 16.6797 15.9455 16.6927 15.9993 16.6927C16.0532 16.6927 16.1063 16.6797 16.154 16.6547L20.666 14.296V5.41468ZM9.33268 5.41468L4.99935 5.41602C4.91094 5.41602 4.82616 5.45113 4.76365 5.51365C4.70113 5.57616 4.66602 5.66094 4.66602 5.74935V9.80668C4.66602 10.4267 5.01135 10.996 5.56068 11.284L9.33268 13.252V5.41468ZM26.9993 5.41602L22.666 5.41468V13.252L26.438 11.284C26.7079 11.143 26.9339 10.9307 27.0916 10.6703C27.2494 10.4098 27.3327 10.1112 27.3327 9.80668V5.74935C27.3327 5.66094 27.2976 5.57616 27.2351 5.51365C27.1725 5.45113 27.0878 5.41602 26.9993 5.41602Z" fill="#00A85E"/>
</g>
</svg>
