<svg width="24" height="25" viewBox="0 0 24 25" fill="none" xmlns="http://www.w3.org/2000/svg">
<g id="fluent:reward-24-regular">
<path id="Vector" d="M20.25 2.49902C21.216 2.49902 22 3.28302 22 4.24902V7.29202C21.9999 7.79439 21.8622 8.28713 21.6018 8.71676C21.3414 9.14638 20.9683 9.49647 20.523 9.72902L14.241 13.009C15.2474 13.5137 16.0539 14.3433 16.5302 15.3635C17.0064 16.3836 17.1244 17.5346 16.865 18.6302C16.6057 19.7257 15.9842 20.7017 15.1012 21.4001C14.2182 22.0985 13.1253 22.4784 11.9995 22.4784C10.8737 22.4784 9.78079 22.0985 8.89777 21.4001C8.01476 20.7017 7.39328 19.7257 7.13395 18.6302C6.87463 17.5346 6.99262 16.3836 7.46885 15.3635C7.94507 14.3433 8.75164 13.5137 9.758 13.009L3.478 9.73002C3.03236 9.49753 2.65896 9.14734 2.39839 8.71751C2.13781 8.28769 2.00003 7.79467 2 7.29202V4.24902C2 3.28302 2.784 2.49902 3.75 2.49902H20.25ZM12 13.98C11.0717 13.98 10.1815 14.3488 9.52513 15.0051C8.86875 15.6615 8.5 16.5518 8.5 17.48C8.5 18.4083 8.86875 19.2985 9.52513 19.9549C10.1815 20.6113 11.0717 20.98 12 20.98C12.9283 20.98 13.8185 20.6113 14.4749 19.9549C15.1313 19.2985 15.5 18.4083 15.5 17.48C15.5 16.5518 15.1313 15.6615 14.4749 15.0051C13.8185 14.3488 12.9283 13.98 12 13.98ZM15.5 3.99802H8.5V10.66L11.884 12.428C11.9198 12.4468 11.9596 12.4566 12 12.4566C12.0404 12.4566 12.0802 12.4468 12.116 12.428L15.5 10.659V3.99802ZM7 3.99802L3.75 3.99902C3.6837 3.99902 3.62011 4.02536 3.57322 4.07225C3.52634 4.11913 3.5 4.18272 3.5 4.24902V7.29202C3.5 7.75702 3.759 8.18402 4.171 8.40002L7 9.87602V3.99802ZM20.25 3.99902L17 3.99802V9.87602L19.829 8.40002C20.0314 8.29425 20.2009 8.13505 20.3192 7.93972C20.4375 7.74439 20.5 7.52038 20.5 7.29202V4.24902C20.5 4.18272 20.4737 4.11913 20.4268 4.07225C20.3799 4.02536 20.3163 3.99902 20.25 3.99902Z" fill="#4F4F4F"/>
</g>
</svg>
