<svg width="24" height="24" viewBox="0 0 24 24" fill="none" xmlns="http://www.w3.org/2000/svg">
<g clip-path="url(#clip0_334_1075)">
<path d="M5.04 7.68005C2.27016 7.68005 0 9.94325 0 12.7057C0 13.7761 0.34176 14.7709 0.9204 15.5885L4.42512 21.6471C4.91592 22.2884 5.24232 22.1667 5.65056 21.6135L9.516 15.0351C9.594 14.8935 9.6552 14.7433 9.70872 14.5897C9.95401 13.9918 10.0801 13.3518 10.08 12.7057C10.08 9.94325 7.81056 7.68005 5.04 7.68005ZM5.04 10.0349C6.53184 10.0349 7.7184 11.2184 7.7184 12.7059C7.7184 14.1934 6.53184 15.3764 5.04 15.3764C3.5484 15.3764 2.3616 14.1932 2.3616 12.7059C2.3616 11.2184 3.5484 10.0349 5.04 10.0349Z" fill="#1B1C1E"/>
<path d="M21.06 0C19.4443 0 18.12 1.32024 18.12 2.93184C18.12 3.55608 18.3192 4.1364 18.6569 4.61328L20.7014 8.14752C20.9878 8.52144 21.1781 8.4504 21.4162 8.12784L23.671 4.29024C23.7166 4.20792 23.7523 4.12032 23.7833 4.03056C23.9264 3.68194 24 3.3087 24 2.93184C24 1.32 22.6762 0 21.06 0ZM21.06 1.37376C21.9302 1.37376 22.6224 2.064 22.6224 2.93184C22.6224 3.79944 21.9302 4.48944 21.06 4.48944C20.19 4.48944 19.4976 3.79944 19.4976 2.93184C19.4976 2.064 20.19 1.37376 21.06 1.37376Z" fill="#1B1C1E"/>
<path fill-rule="evenodd" clip-rule="evenodd" d="M21.1701 8.97888C20.6309 8.99088 20.0901 9.01368 19.5485 9.05376L19.632 10.3814C20.1523 10.3438 20.6735 10.3195 21.1951 10.3087L21.1701 8.97888ZM18.2961 9.17568C17.4633 9.27912 16.6233 9.42648 15.7929 9.66336L16.1057 10.95C16.8602 10.735 17.6421 10.596 18.4363 10.4974L18.2961 9.17568ZM14.5495 10.1088C14.3007 10.2186 14.0598 10.3456 13.8285 10.4887L13.8276 10.4899L13.8261 10.4904C13.4961 10.6982 13.1484 10.962 12.8645 11.3453C12.6588 11.623 12.4905 11.9741 12.4512 12.3893L13.674 12.5249C13.6831 12.4274 13.733 12.2988 13.8228 12.1778H13.8233V12.1774C13.968 11.9815 14.1849 11.8037 14.4429 11.641L14.4439 11.6405C14.6278 11.527 14.8193 11.4263 15.017 11.339L14.5495 10.1088ZM13.92 13.1172L13.1273 14.1336C13.3152 14.3054 13.5122 14.4374 13.7025 14.5478L13.7049 14.549L13.7073 14.5505C14.339 14.9098 14.9904 15.1126 15.5942 15.305L15.9413 14.0287C15.3377 13.8362 14.7686 13.6505 14.2809 13.3735C14.1413 13.2924 14.0189 13.2077 13.92 13.1172ZM17.1204 14.3878L16.7815 15.6662L16.9418 15.7162L17.1386 15.779C17.79 15.991 18.414 16.2173 18.9717 16.5305L19.5377 15.3497C18.8633 14.9707 18.1632 14.723 17.4885 14.5037L17.4866 14.5032L17.2845 14.4386L17.1204 14.3878ZM20.6885 16.2358L19.8189 17.1766C20.0244 17.399 20.1782 17.6666 20.2531 17.9431L20.2536 17.9446L20.2541 17.9467C20.3433 18.2695 20.3436 18.6492 20.2737 19.0327L21.4795 19.29C21.5779 18.7486 21.5937 18.1541 21.432 17.5673C21.2911 17.0484 21.0223 16.5977 20.6885 16.2358ZM19.8528 19.8343C19.7199 19.9747 19.5731 20.1011 19.4145 20.2116H19.4141C18.9821 20.5154 18.4809 20.7444 17.9486 20.9412L18.3456 22.1998C18.9278 21.9845 19.5257 21.7205 20.0844 21.3274L20.0858 21.3262L20.0865 21.3257C20.316 21.165 20.5282 20.9811 20.7199 20.7768L19.8528 19.8343ZM16.8192 21.2957C16.0481 21.503 15.2599 21.661 14.4621 21.7949L14.6503 23.1098C15.4713 22.9718 16.2957 22.807 17.1151 22.5866L16.8192 21.2957ZM13.2619 21.9763C12.4589 22.086 11.6515 22.1755 10.8417 22.2518L10.9478 23.5771C11.7701 23.4998 12.5937 23.4089 13.4162 23.2963L13.2619 21.9763ZM9.6247 22.3562C8.81326 22.4206 7.9999 22.4729 7.18582 22.517L7.24726 23.8457C8.06926 23.8013 8.89198 23.7482 9.71446 23.683L9.6247 22.3562ZM5.96254 22.577C5.47462 22.5998 4.9855 22.6186 4.49518 22.6358L4.5355 23.9657C5.02888 23.9487 5.52217 23.929 6.01534 23.9066L5.96254 22.577Z" fill="#1B1C1E"/>
</g>
<defs>
<clipPath id="clip0_334_1075">
<rect width="24" height="24" fill="white"/>
</clipPath>
</defs>
</svg>
