<svg width="100" height="100" viewBox="0 0 100 100" fill="none" xmlns="http://www.w3.org/2000/svg">
<g id="ic:outline-error-outline">
<path id="Vector" d="M45.833 62.5H54.1663V70.8333H45.833V62.5ZM45.833 29.1666H54.1663V54.1666H45.833V29.1666ZM49.958 8.33331C26.958 8.33331 8.33301 27 8.33301 50C8.33301 73 26.958 91.6667 49.958 91.6667C72.9997 91.6667 91.6664 73 91.6664 50C91.6664 27 72.9997 8.33331 49.958 8.33331ZM49.9997 83.3333C31.583 83.3333 16.6663 68.4167 16.6663 50C16.6663 31.5833 31.583 16.6666 49.9997 16.6666C68.4163 16.6666 83.333 31.5833 83.333 50C83.333 68.4167 68.4163 83.3333 49.9997 83.3333Z" fill="#EB5757"/>
</g>
</svg>
