<svg width="24" height="25" viewBox="0 0 24 25" fill="none" xmlns="http://www.w3.org/2000/svg">
<g id="icon-park-outline:doc-success">
<g id="Group">
<path id="Vector" d="M8.5 15.5H15.5M8.5 18.5H12M19 2.5H5C4.73478 2.5 4.48043 2.60536 4.29289 2.79289C4.10536 2.98043 4 3.23478 4 3.5V21.5C4 21.7652 4.10536 22.0196 4.29289 22.2071C4.48043 22.3946 4.73478 22.5 5 22.5H19C19.2652 22.5 19.5196 22.3946 19.7071 22.2071C19.8946 22.0196 20 21.7652 20 21.5V3.5C20 3.23478 19.8946 2.98043 19.7071 2.79289C19.5196 2.60536 19.2652 2.5 19 2.5Z" stroke="#4F4F4F" stroke-width="2" stroke-linecap="round" stroke-linejoin="round"/>
<path id="Vector_2" d="M15 7L11 11L9 9" stroke="#4F4F4F" stroke-width="2" stroke-linecap="round" stroke-linejoin="round"/>
</g>
</g>
</svg>
