<svg width="24" height="25" viewBox="0 0 24 25" fill="none" xmlns="http://www.w3.org/2000/svg">
<g id="ion:wallet-outline">
<path id="Vector" d="M19.5 7.25H4.5C3.25736 7.25 2.25 8.25736 2.25 9.5V18.5C2.25 19.7426 3.25736 20.75 4.5 20.75H19.5C20.7426 20.75 21.75 19.7426 21.75 18.5V9.5C21.75 8.25736 20.7426 7.25 19.5 7.25Z" stroke="#4F4F4F" stroke-width="2" stroke-linejoin="round"/>
<path id="Vector_2" d="M19.2825 7.25022V5.84397C19.2824 5.49907 19.2062 5.15844 19.0592 4.84639C18.9123 4.53434 18.6984 4.25856 18.4326 4.03873C18.1668 3.8189 17.8558 3.66044 17.5217 3.57464C17.1877 3.48885 16.8388 3.47784 16.5 3.54241L4.155 5.64944C3.6189 5.7516 3.13526 6.03765 2.78749 6.45824C2.43972 6.87883 2.24963 7.4076 2.25 7.95335V10.2502" stroke="#4F4F4F" stroke-width="2" stroke-linejoin="round"/>
<path id="Vector_3" d="M17.25 15.5C16.9533 15.5 16.6633 15.412 16.4166 15.2472C16.17 15.0824 15.9777 14.8481 15.8642 14.574C15.7506 14.2999 15.7209 13.9983 15.7788 13.7074C15.8367 13.4164 15.9796 13.1491 16.1893 12.9393C16.3991 12.7296 16.6664 12.5867 16.9574 12.5288C17.2483 12.4709 17.5499 12.5006 17.824 12.6142C18.0981 12.7277 18.3324 12.92 18.4972 13.1666C18.662 13.4133 18.75 13.7033 18.75 14C18.75 14.3978 18.592 14.7794 18.3107 15.0607C18.0294 15.342 17.6478 15.5 17.25 15.5Z" fill="#4F4F4F"/>
</g>
</svg>
