<svg width="18" height="18" viewBox="0 0 18 18" fill="none" xmlns="http://www.w3.org/2000/svg">
<g id="material-symbols:arrow-outward-rounded">
<path id="Vector" d="M11.9998 6.3L5.34355 12.975C5.19355 13.125 5.0153 13.2 4.8088 13.2C4.6028 13.2 4.4248 13.125 4.2748 12.975C4.1248 12.825 4.0498 12.6468 4.0498 12.4403C4.0498 12.2343 4.1248 12.0563 4.2748 11.9063L10.9498 5.25H5.2498C5.0373 5.25 4.85905 5.17825 4.71505 5.03475C4.57155 4.89075 4.4998 4.7125 4.4998 4.5C4.4998 4.2875 4.57155 4.10925 4.71505 3.96525C4.85905 3.82175 5.0373 3.75 5.2498 3.75H12.7498C12.9623 3.75 13.1403 3.82175 13.2838 3.96525C13.4278 4.10925 13.4998 4.2875 13.4998 4.5V12C13.4998 12.2125 13.4278 12.3905 13.2838 12.534C13.1403 12.678 12.9623 12.75 12.7498 12.75C12.5373 12.75 12.3593 12.678 12.2158 12.534C12.0718 12.3905 11.9998 12.2125 11.9998 12V6.3Z" fill="#00A85E"/>
</g>
</svg>
