<svg width="25" height="24" viewBox="0 0 25 24" fill="none" xmlns="http://www.w3.org/2000/svg">
<g clip-path="url(#clip0_408_514)">
<path d="M17.7 15.075C17.45 14.975 17.2667 14.7957 17.15 14.537C17.0333 14.279 17.025 14.025 17.125 13.775C17.2417 13.4917 17.325 13.1957 17.375 12.887C17.425 12.579 17.45 12.225 17.45 11.825C17.45 10.575 16.975 9.46233 16.025 8.487C15.075 7.51233 13.95 7.025 12.65 7.025C12.3167 7.025 11.9877 7.05 11.663 7.1C11.3377 7.15 11.0167 7.24167 10.7 7.375C10.4333 7.49167 10.175 7.49167 9.925 7.375C9.675 7.25833 9.5 7.06667 9.4 6.8C9.3 6.53333 9.30433 6.275 9.413 6.025C9.521 5.775 9.70833 5.6 9.975 5.5C10.4083 5.33333 10.8417 5.21233 11.275 5.137C11.7083 5.06233 12.1667 5.025 12.65 5.025C14.5333 5.025 16.1373 5.69167 17.462 7.025C18.7873 8.35833 19.45 9.95833 19.45 11.825C19.45 12.3583 19.421 12.8333 19.363 13.25C19.3043 13.6667 19.1917 14.0917 19.025 14.525C18.925 14.775 18.746 14.95 18.488 15.05C18.2293 15.15 17.9667 15.1583 17.7 15.075ZM12.5 19C10.55 19 8.896 18.3207 7.538 16.962C6.17933 15.604 5.5 13.95 5.5 12C5.5 11.3167 5.604 10.6293 5.812 9.938C6.02067 9.246 6.34167 8.59167 6.775 7.975C6.85833 7.84167 6.971 7.73733 7.113 7.662C7.25433 7.58733 7.4 7.55 7.55 7.55C7.73333 7.53333 7.91267 7.575 8.088 7.675C8.26267 7.775 8.39167 7.90833 8.475 8.075C9.40833 9.775 10.55 11.2957 11.9 12.637C13.25 13.979 14.775 15.1 16.475 16C16.625 16.0833 16.7457 16.1957 16.837 16.337C16.929 16.479 16.9833 16.6417 17 16.825C17.0167 16.9917 16.9833 17.15 16.9 17.3C16.8167 17.45 16.7083 17.575 16.575 17.675C15.9583 18.1083 15.3043 18.4377 14.613 18.663C13.921 18.8877 13.2167 19 12.5 19ZM12.5 17C12.7333 17 12.9627 16.9873 13.188 16.962C13.4127 16.9373 13.65 16.8833 13.9 16.8C12.65 16 11.5083 15.0833 10.475 14.05C9.44167 13.0167 8.51667 11.8833 7.7 10.65C7.63333 10.8833 7.58333 11.1083 7.55 11.325C7.51667 11.5417 7.5 11.7667 7.5 12C7.5 13.4167 7.996 14.6 8.988 15.55C9.97933 16.5 11.15 16.9833 12.5 17ZM12.5 3C12.2167 3 11.9793 2.904 11.788 2.712C11.596 2.52067 11.5 2.28333 11.5 2V1C11.5 0.716667 11.596 0.479 11.788 0.287C11.9793 0.0956667 12.2167 0 12.5 0C12.7833 0 13.021 0.0956667 13.213 0.287C13.4043 0.479 13.5 0.716667 13.5 1V2C13.5 2.28333 13.4043 2.52067 13.213 2.712C13.021 2.904 12.7833 3 12.5 3ZM12.5 24C12.2167 24 11.9793 23.904 11.788 23.712C11.596 23.5207 11.5 23.2833 11.5 23V22C11.5 21.7167 11.596 21.4793 11.788 21.288C11.9793 21.096 12.2167 21 12.5 21C12.7833 21 13.021 21.096 13.213 21.288C13.4043 21.4793 13.5 21.7167 13.5 22V23C13.5 23.2833 13.4043 23.5207 13.213 23.712C13.021 23.904 12.7833 24 12.5 24ZM18.85 5.625C18.65 5.425 18.55 5.18733 18.55 4.912C18.55 4.63733 18.65 4.4 18.85 4.2L19.55 3.5C19.75 3.3 19.9917 3.2 20.275 3.2C20.5583 3.2 20.8 3.3 21 3.5C21.2 3.7 21.296 3.93733 21.288 4.212C21.2793 4.48733 21.175 4.725 20.975 4.925L20.275 5.625C20.075 5.825 19.8373 5.925 19.562 5.925C19.2873 5.925 19.05 5.825 18.85 5.625ZM4.025 20.475C3.825 20.275 3.725 20.0377 3.725 19.763C3.725 19.4877 3.825 19.25 4.025 19.05L4.725 18.35C4.90833 18.1667 5.13333 18.075 5.4 18.075C5.66667 18.075 5.9 18.1667 6.1 18.35C6.3 18.5333 6.40833 18.7667 6.425 19.05C6.44167 19.3333 6.35 19.575 6.15 19.775L5.45 20.475C5.25 20.675 5.01267 20.775 4.738 20.775C4.46267 20.775 4.225 20.675 4.025 20.475ZM22.5 13C22.2167 13 21.9793 12.904 21.788 12.712C21.596 12.5207 21.5 12.2833 21.5 12C21.5 11.7167 21.596 11.479 21.788 11.287C21.9793 11.0957 22.2167 11 22.5 11H23.5C23.7833 11 24.0207 11.0957 24.212 11.287C24.404 11.479 24.5 11.7167 24.5 12C24.5 12.2833 24.404 12.5207 24.212 12.712C24.0207 12.904 23.7833 13 23.5 13H22.5ZM1.5 13C1.21667 13 0.979333 12.904 0.788 12.712C0.596 12.5207 0.5 12.2833 0.5 12C0.5 11.7167 0.596 11.479 0.788 11.287C0.979333 11.0957 1.21667 11 1.5 11H2.5C2.78333 11 3.021 11.0957 3.213 11.287C3.40433 11.479 3.5 11.7167 3.5 12C3.5 12.2833 3.40433 12.5207 3.213 12.712C3.021 12.904 2.78333 13 2.5 13H1.5ZM19.55 20.475L18.85 19.775C18.6667 19.5917 18.575 19.3667 18.575 19.1C18.575 18.8333 18.6667 18.6 18.85 18.4C19.0333 18.2 19.2667 18.0917 19.55 18.075C19.8333 18.0583 20.075 18.15 20.275 18.35L20.975 19.05C21.175 19.25 21.271 19.4833 21.263 19.75C21.2543 20.0167 21.1583 20.25 20.975 20.45C20.7917 20.65 20.5583 20.754 20.275 20.762C19.9917 20.7707 19.75 20.675 19.55 20.475ZM4.725 5.625L4.025 4.925C3.825 4.725 3.729 4.49567 3.737 4.237C3.74567 3.979 3.84167 3.75 4.025 3.55C4.20833 3.35 4.44167 3.24167 4.725 3.225C5.00833 3.20833 5.25 3.3 5.45 3.5L6.15 4.2C6.35 4.4 6.45 4.63733 6.45 4.912C6.45 5.18733 6.35 5.425 6.15 5.625C5.95 5.825 5.71267 5.925 5.438 5.925C5.16267 5.925 4.925 5.825 4.725 5.625Z" fill="#828282"/>
</g>
<defs>
<clipPath id="clip0_408_514">
<rect width="24" height="24" fill="white" transform="translate(0.5)"/>
</clipPath>
</defs>
</svg>
