<svg width="24" height="25" viewBox="0 0 24 25" fill="none" xmlns="http://www.w3.org/2000/svg">
<g id="material-symbols:savings-outline-sharp">
<path id="Vector" d="M16 11.5C16.2833 11.5 16.5207 11.404 16.712 11.212C16.904 11.0207 17 10.7833 17 10.5C17 10.2167 16.904 9.979 16.712 9.787C16.5207 9.59567 16.2833 9.5 16 9.5C15.7167 9.5 15.4793 9.59567 15.288 9.787C15.096 9.979 15 10.2167 15 10.5C15 10.7833 15.096 11.0207 15.288 11.212C15.4793 11.404 15.7167 11.5 16 11.5ZM8 9.5H13V7.5H8V9.5ZM4.5 21.5C3.93333 19.6 3.375 17.704 2.825 15.812C2.275 13.9207 2 11.9833 2 10C2 8.46667 2.53333 7.16667 3.6 6.1C4.66667 5.03333 5.96667 4.5 7.5 4.5H12.5C12.9833 3.86667 13.571 3.375 14.263 3.025C14.9543 2.675 15.7 2.5 16.5 2.5C16.9167 2.5 17.2707 2.646 17.562 2.938C17.854 3.22933 18 3.58333 18 4C18 4.1 17.9873 4.2 17.962 4.3C17.9373 4.4 17.9083 4.49167 17.875 4.575C17.8083 4.75833 17.746 4.94567 17.688 5.137C17.6293 5.329 17.5833 5.525 17.55 5.725L19.825 8H22V14.975L19.175 15.9L17.5 21.5H12V19.5H10V21.5H4.5ZM6 19.5H8V17.5H14V19.5H16L17.55 14.35L20 13.525V10H19L15.5 6.5C15.5 6.16667 15.5207 5.84567 15.562 5.537C15.604 5.229 15.6667 4.91667 15.75 4.6C15.2667 4.73333 14.8417 4.96233 14.475 5.287C14.1083 5.61233 13.8417 6.01667 13.675 6.5H7.5C6.53333 6.5 5.70833 6.84167 5.025 7.525C4.34167 8.20833 4 9.03333 4 10C4 11.6333 4.225 13.229 4.675 14.787C5.125 16.3457 5.56667 17.9167 6 19.5Z" fill="#4F4F4F"/>
</g>
</svg>
