<svg width="100" height="100" viewBox="0 0 100 100" fill="none" xmlns="http://www.w3.org/2000/svg">
<g id="mdi:success-circle-outline">
<path id="Vector" d="M49.9997 8.33331C27.083 8.33331 8.33301 27.0833 8.33301 50C8.33301 72.9166 27.083 91.6667 49.9997 91.6667C72.9163 91.6667 91.6664 72.9166 91.6664 50C91.6664 27.0833 72.9163 8.33331 49.9997 8.33331ZM49.9997 83.3333C31.6247 83.3333 16.6663 68.375 16.6663 50C16.6663 31.625 31.6247 16.6666 49.9997 16.6666C68.3747 16.6666 83.333 31.625 83.333 50C83.333 68.375 68.3747 83.3333 49.9997 83.3333ZM69.1247 31.5833L41.6663 59.0416L30.8747 48.2916L24.9997 54.1666L41.6663 70.8333L74.9997 37.5L69.1247 31.5833Z" fill="#27AE60"/>
</g>
</svg>
