<svg width="21" height="20" viewBox="0 0 21 20" fill="none" xmlns="http://www.w3.org/2000/svg">
<path d="M15.5 1.3C11.6 -0.9 6.8 -0.2 3.6 2.8V1C3.6 0.4 3.2 0 2.6 0C2 0 1.6 0.4 1.6 1V5.5C1.6 6.1 2 6.5 2.6 6.5H7.1C7.7 6.5 8.1 6.1 8.1 5.5C8.1 4.9 7.7 4.5 7.1 4.5H4.7C6.2 2.9 8.3 2 10.5 2C14.9 2 18.5 5.6 18.5 10C18.5 14.4 14.9 18 10.5 18C6.1 18 2.5 14.4 2.5 10C2.5 9.4 2.1 9 1.5 9C0.9 9 0.5 9.4 0.5 10C0.5 15.5 5 20 10.5 20C14.1 20 17.4 18.1 19.2 15C21.9 10.2 20.3 4.1 15.5 1.3ZM10.5 6C9.9 6 9.5 6.4 9.5 7V10C9.5 10.6 9.9 11 10.5 11H12.5C13.1 11 13.5 10.6 13.5 10C13.5 9.4 13.1 9 12.5 9H11.5V7C11.5 6.4 11.1 6 10.5 6Z" fill="#828282"/>
</svg>
