<svg width="20" height="21" viewBox="0 0 20 21" fill="none" xmlns="http://www.w3.org/2000/svg">
<g id="tabler:license">
<path id="Vector" d="M12.5 18.2966H5C4.33696 18.2966 3.70107 18.0332 3.23223 17.5644C2.76339 17.0956 2.5 16.4597 2.5 15.7966V14.9633H10.8333V16.63C10.8333 17.072 11.0089 17.4959 11.3215 17.8085C11.6341 18.121 12.058 18.2966 12.5 18.2966ZM12.5 18.2966C12.942 18.2966 13.366 18.121 13.6785 17.8085C13.9911 17.4959 14.1667 17.072 14.1667 16.63V4.9633C14.1667 4.63366 14.2644 4.31143 14.4476 4.03735C14.6307 3.76327 14.891 3.54965 15.1955 3.4235C15.5001 3.29735 15.8352 3.26435 16.1585 3.32866C16.4818 3.39296 16.7788 3.5517 17.0118 3.78479C17.2449 4.01787 17.4037 4.31485 17.468 4.63815C17.5323 4.96145 17.4993 5.29656 17.3731 5.6011C17.247 5.90565 17.0334 6.16595 16.7593 6.34908C16.4852 6.53222 16.163 6.62996 15.8333 6.62996H14.1667M15.8333 3.29663H6.66667C6.00363 3.29663 5.36774 3.56002 4.8989 4.02886C4.43006 4.49771 4.16667 5.13359 4.16667 5.79663V14.9633M7.5 6.62996H10.8333M7.5 9.9633H10.8333" stroke="#4F4F4F" stroke-width="2" stroke-linecap="round" stroke-linejoin="round"/>
</g>
</svg>
