<svg width="20" height="20" viewBox="0 0 20 20" fill="none" xmlns="http://www.w3.org/2000/svg">
<g id="tabler:license">
<path id="Vector" d="M12.5 17.5H5C4.33696 17.5 3.70107 17.2366 3.23223 16.7678C2.76339 16.2989 2.5 15.663 2.5 15V14.1667H10.8333V15.8333C10.8333 16.2754 11.0089 16.6993 11.3215 17.0118C11.6341 17.3244 12.058 17.5 12.5 17.5ZM12.5 17.5C12.942 17.5 13.366 17.3244 13.6785 17.0118C13.9911 16.6993 14.1667 16.2754 14.1667 15.8333V4.16667C14.1667 3.83703 14.2644 3.5148 14.4476 3.24072C14.6307 2.96664 14.891 2.75301 15.1955 2.62687C15.5001 2.50072 15.8352 2.46772 16.1585 2.53203C16.4818 2.59633 16.7788 2.75507 17.0118 2.98816C17.2449 3.22124 17.4037 3.51822 17.468 3.84152C17.5323 4.16482 17.4993 4.49993 17.3731 4.80447C17.247 5.10902 17.0334 5.36931 16.7593 5.55245C16.4852 5.73559 16.163 5.83333 15.8333 5.83333H14.1667M15.8333 2.5H6.66667C6.00363 2.5 5.36774 2.76339 4.8989 3.23223C4.43006 3.70107 4.16667 4.33696 4.16667 5V14.1667M7.5 5.83333H10.8333M7.5 9.16667H10.8333" stroke="#00A85E" stroke-width="2" stroke-linecap="round" stroke-linejoin="round"/>
</g>
</svg>
