<svg width="18" height="18" viewBox="0 0 18 18" fill="none" xmlns="http://www.w3.org/2000/svg">
<path fill-rule="evenodd" clip-rule="evenodd" d="M14.75 2C14.75 2.53043 14.5393 3.03914 14.1642 3.41421C13.7891 3.78929 13.2804 4 12.75 4C12.2196 4 11.7109 3.78929 11.3358 3.41421C10.9607 3.03914 10.75 2.53043 10.75 2C10.75 1.46957 10.9607 0.960859 11.3358 0.585786C11.7109 0.210714 12.2196 0 12.75 0C13.2804 0 13.7891 0.210714 14.1642 0.585786C14.5393 0.960859 14.75 1.46957 14.75 2ZM13.75 2C13.75 2.26522 13.6446 2.51957 13.4571 2.70711C13.2696 2.89464 13.0152 3 12.75 3C12.4848 3 12.2304 2.89464 12.0429 2.70711C11.8554 2.51957 11.75 2.26522 11.75 2C11.75 1.73478 11.8554 1.48043 12.0429 1.29289C12.2304 1.10536 12.4848 1 12.75 1C13.0152 1 13.2696 1.10536 13.4571 1.29289C13.6446 1.48043 13.75 1.73478 13.75 2ZM2.5 11C2.5 10.7348 2.60536 10.4804 2.79289 10.2929C2.98043 10.1054 3.23478 10 3.5 10H5C5.26522 10 5.51957 10.1054 5.70711 10.2929C5.89464 10.4804 6 10.7348 6 11V12H7.5C7.76522 12 8.01957 12.1054 8.20711 12.2929C8.39464 12.4804 8.5 12.7348 8.5 13V17C8.5 17.2652 8.39464 17.5196 8.20711 17.7071C8.01957 17.8946 7.76522 18 7.5 18H1C0.734784 18 0.48043 17.8946 0.292893 17.7071C0.105357 17.5196 0 17.2652 0 17V13C0 12.7348 0.105357 12.4804 0.292893 12.2929C0.48043 12.1054 0.734784 12 1 12H2.5V11ZM1 17V13H2V17H1ZM5 11V12H3.5V11H5ZM5.5 13H3V17H5.5V13ZM6.5 13V17H7.5V13H6.5Z" fill="#BDBDBD"/>
<path d="M16 8C16 7.73478 15.8946 7.48043 15.7071 7.29289C15.5196 7.10536 15.2652 7 15 7V9C15.2652 9 15.5196 8.89464 15.7071 8.70711C15.8946 8.51957 16 8.26522 16 8Z" fill="#BDBDBD"/>
<path fill-rule="evenodd" clip-rule="evenodd" d="M11 18C10.6022 18 10.2206 17.842 9.93934 17.5607C9.65804 17.2794 9.5 16.8978 9.5 16.5V8H7C6.60218 8 6.22064 7.84196 5.93934 7.56066C5.65804 7.27936 5.5 6.89782 5.5 6.5C5.5 6.10218 5.65804 5.72064 5.93934 5.43934C6.22064 5.15804 6.60218 5 7 5H15.508C16.0645 5 18 5.682 18 7.7855C18 9.455 16.7815 10.499 16 10.859V16.5C16 16.8978 15.842 17.2794 15.5607 17.5607C15.2794 17.842 14.8978 18 14.5 18C14.1022 18 13.7206 17.842 13.4393 17.5607C13.158 17.2794 13 16.8978 13 16.5V12.5H12.5V16.5C12.5 16.8505 12.38 17.173 12.178 17.4285C12.0378 17.6068 11.8589 17.7509 11.6548 17.8499C11.4507 17.9489 11.2268 18.0002 11 18ZM15 10.2185L15.5815 9.9505C16.1535 9.687 17 8.927 17 7.7855C17 7.0885 16.6975 6.6665 16.346 6.391C16.1753 6.25815 15.9855 6.15195 15.783 6.076C15.6953 6.04174 15.6043 6.01661 15.5115 6.001C15.5045 6 15.5035 6 15.5075 6H7C6.86739 6 6.74021 6.05268 6.64645 6.14645C6.55268 6.24021 6.5 6.36739 6.5 6.5C6.5 6.63261 6.55268 6.75979 6.64645 6.85355C6.74021 6.94732 6.86739 7 7 7H10.5V16.5C10.5 16.6326 10.5527 16.7598 10.6464 16.8536C10.7402 16.9473 10.8674 17 11 17C11.1326 17 11.2598 16.9473 11.3536 16.8536C11.4473 16.7598 11.5 16.6326 11.5 16.5V11.5H14V16.5C14 16.6326 14.0527 16.7598 14.1464 16.8536C14.2402 16.9473 14.3674 17 14.5 17C14.6326 17 14.7598 16.9473 14.8536 16.8536C14.9473 16.7598 15 16.6326 15 16.5V10.2185Z" fill="#BDBDBD"/>
</svg>
