<svg width="22" height="12" viewBox="0 0 22 12" fill="none" xmlns="http://www.w3.org/2000/svg">
<path d="M15 0L14 0.75L16.5 4H12.5V2.5H11V4H2C0.89 4 0 4.89 0 6V9H2C2 9.79565 2.31607 10.5587 2.87868 11.1213C3.44129 11.6839 4.20435 12 5 12C5.79565 12 6.55871 11.6839 7.12132 11.1213C7.68393 10.5587 8 9.79565 8 9H14C14 9.79565 14.3161 10.5587 14.8787 11.1213C15.4413 11.6839 16.2044 12 17 12C17.7956 12 18.5587 11.6839 19.1213 11.1213C19.6839 10.5587 20 9.79565 20 9H22V6C22 4.89 21.11 4 20 4H18L15 0ZM5 7.5C5.39782 7.5 5.77936 7.65804 6.06066 7.93934C6.34196 8.22064 6.5 8.60218 6.5 9C6.5 9.39782 6.34196 9.77936 6.06066 10.0607C5.77936 10.342 5.39782 10.5 5 10.5C4.60218 10.5 4.22064 10.342 3.93934 10.0607C3.65804 9.77936 3.5 9.39782 3.5 9C3.5 8.60218 3.65804 8.22064 3.93934 7.93934C4.22064 7.65804 4.60218 7.5 5 7.5ZM17 7.5C17.3978 7.5 17.7794 7.65804 18.0607 7.93934C18.342 8.22064 18.5 8.60218 18.5 9C18.5 9.39782 18.342 9.77936 18.0607 10.0607C17.7794 10.342 17.3978 10.5 17 10.5C16.6022 10.5 16.2206 10.342 15.9393 10.0607C15.658 9.77936 15.5 9.39782 15.5 9C15.5 8.60218 15.658 8.22064 15.9393 7.93934C16.2206 7.65804 16.6022 7.5 17 7.5Z" fill="#BDBDBD"/>
</svg>
