<svg width="32" height="32" viewBox="0 0 32 32" fill="none" xmlns="http://www.w3.org/2000/svg">
<g id="uil:atm-card">
<path id="Vector" d="M9.33268 20H13.3327C13.6863 20 14.0254 19.8595 14.2755 19.6094C14.5255 19.3594 14.666 19.0202 14.666 18.6666C14.666 18.313 14.5255 17.9739 14.2755 17.7238C14.0254 17.4738 13.6863 17.3333 13.3327 17.3333H9.33268C8.97906 17.3333 8.63992 17.4738 8.38987 17.7238C8.13982 17.9739 7.99935 18.313 7.99935 18.6666C7.99935 19.0202 8.13982 19.3594 8.38987 19.6094C8.63992 19.8595 8.97906 20 9.33268 20ZM25.3327 6.66663H6.66602C5.60515 6.66663 4.58773 7.08805 3.83759 7.8382C3.08744 8.58834 2.66602 9.60576 2.66602 10.6666V22.6666C2.66602 23.7275 3.08744 24.7449 3.83759 25.4951C4.58773 26.2452 5.60515 26.6666 6.66602 26.6666H25.3327C26.3935 26.6666 27.411 26.2452 28.1611 25.4951C28.9113 24.7449 29.3327 23.7275 29.3327 22.6666V10.6666C29.3327 9.60576 28.9113 8.58834 28.1611 7.8382C27.411 7.08805 26.3935 6.66663 25.3327 6.66663ZM26.666 22.6666C26.666 23.0202 26.5255 23.3594 26.2755 23.6094C26.0254 23.8595 25.6863 24 25.3327 24H6.66602C6.31239 24 5.97326 23.8595 5.72321 23.6094C5.47316 23.3594 5.33268 23.0202 5.33268 22.6666V14.6666H26.666V22.6666ZM26.666 12H5.33268V10.6666C5.33268 10.313 5.47316 9.97387 5.72321 9.72382C5.97326 9.47377 6.31239 9.33329 6.66602 9.33329H25.3327C25.6863 9.33329 26.0254 9.47377 26.2755 9.72382C26.5255 9.97387 26.666 10.313 26.666 10.6666V12Z" fill="#00A85E"/>
</g>
</svg>
